<?xml version="1.0" encoding="UTF-8" standalone="no"?>
<svg
   xmlns:dc="http://purl.org/dc/elements/1.1/"
   xmlns:cc="http://creativecommons.org/ns#"
   xmlns:rdf="http://www.w3.org/1999/02/22-rdf-syntax-ns#"
   xmlns:svg="http://www.w3.org/2000/svg"
   xmlns="http://www.w3.org/2000/svg"
   xmlns:sodipodi="http://sodipodi.sourceforge.net/DTD/sodipodi-0.dtd"
   xmlns:inkscape="http://www.inkscape.org/namespaces/inkscape"
   version="1.1"
   id="thga-logo"
   x="0px"
   y="0px"
   viewBox="673.1 101.8 838.79999 352.5"
   xml:space="preserve"
   sodipodi:docname="thga.svg"
   width="838.79999"
   height="352.5"
   inkscape:version="0.92.3 (2405546, 2018-03-11)"><metadata
   id="metadata3893"><rdf:RDF><cc:Work
       rdf:about=""><dc:format>image/svg+xml</dc:format><dc:type
         rdf:resource="http://purl.org/dc/dcmitype/StillImage" /><dc:title></dc:title></cc:Work></rdf:RDF></metadata><defs
   id="defs3891" /><sodipodi:namedview
   pagecolor="#ffffff"
   bordercolor="#666666"
   borderopacity="1"
   objecttolerance="10"
   gridtolerance="10"
   guidetolerance="10"
   inkscape:pageopacity="0"
   inkscape:pageshadow="2"
   inkscape:window-width="640"
   inkscape:window-height="480"
   id="namedview3889"
   showgrid="false"
   fit-margin-top="0"
   fit-margin-left="0"
   fit-margin-right="0"
   fit-margin-bottom="0"
   inkscape:zoom="0.41452991"
   inkscape:cx="413.5"
   inkscape:cy="173.5"
   inkscape:window-x="0"
   inkscape:window-y="31"
   inkscape:window-maximized="0"
   inkscape:current-layer="thga-logo" />
<style
   type="text/css"
   id="style3870">
	.st0{fill:#E3001F;}
	.st1{fill:#003C7C;}
</style>
<g
   id="g3886"
   transform="translate(-54.5,-41.5)">
	<g
   id="g3878">
		<path
   class="st0"
   d="m 1547.3,477.9 c -4.3,0 -7.7,-2.2 -7.7,-6 v -0.2 c 0,-4.1 3.4,-6.6 9.3,-6.6 3.6,0 6.6,0.7 9,1.6 v 2.7 c 0,5.1 -4.6,8.5 -10.6,8.5 m -2.5,6.6 c 6,0 10.2,-2.5 12.8,-5.7 v 4.9 h 8.8 v -23.4 c 0,-5.2 -1.3,-9.3 -4.3,-12.2 -2.8,-2.8 -7.2,-4.4 -13.1,-4.4 -6.3,0 -10.5,1.3 -14.9,3.2 l 2.5,7.1 c 3.6,-1.5 6.9,-2.5 11.3,-2.5 6.3,0 9.8,3 9.8,8.6 v 1 c -3.1,-1 -6.2,-1.6 -10.6,-1.6 -9.6,0 -16.4,4.2 -16.4,12.7 v 0.1 c 0.1,7.9 6.7,12.2 14.1,12.2 m -31.5,-0.8 h 9.1 v -54.5 h -9.1 z m -28.4,-7.1 c -7,0 -12,-5.7 -12,-12.6 v -0.2 c 0,-6.9 4.6,-12.5 11.9,-12.5 7.1,0 12.1,5.8 12.1,12.7 v 0.2 c 0,6.8 -4.7,12.4 -12,12.4 m -0.1,8 c 12.2,0 21.1,-9.3 21.1,-20.5 v -0.2 c 0,-11.3 -8.9,-20.5 -21,-20.5 -12.1,0 -21.1,9.3 -21.1,20.6 v 0.2 c 0.1,11.2 8.9,20.4 21,20.4 m -41.7,0 c 7.7,0 12.2,-3.1 16.1,-7.4 l -5.4,-5.4 c -2.9,2.9 -6,4.9 -10.2,4.9 -6.9,0 -11.8,-5.6 -11.8,-12.6 v -0.2 c 0,-6.9 4.9,-12.5 11.4,-12.5 4.5,0 7.4,2.1 10.2,4.9 l 5.7,-6.1 c -3.7,-4 -8.4,-6.8 -15.8,-6.8 -11.9,0 -20.5,9.4 -20.5,20.6 v 0.2 c -0.1,11.2 8.6,20.4 20.3,20.4 m -37.6,-0.9 h 9.1 v -39.4 h -9.1 z m -0.3,-45.5 h 9.7 v -8.6 h -9.7 z m -32.4,45.5 h 9.1 v -15 c 0,-10.5 5.5,-15.6 13.4,-15.6 h 0.5 v -9.6 c -6.9,-0.3 -11.5,3.7 -14,9.6 v -8.9 h -9.1 z m -31.5,-10.9 c -6.2,0 -11.2,-4.4 -11.2,-10.8 v -0.1 c 0,-6.5 4.9,-10.8 11.2,-10.8 6.3,0 11.6,4.3 11.6,10.8 v 0.1 c 0,6.4 -5.3,10.8 -11.6,10.8 m -0.7,23 c 7.1,0 12.6,-1.7 16.2,-5.3 3.3,-3.3 5,-8.2 5,-14.9 v -31.4 h -9 v 5.9 c -3.1,-3.7 -7.2,-6.7 -13.8,-6.7 -9.2,0 -17.9,6.9 -17.9,18.5 v 0.2 c 0,11.6 8.6,18.4 17.9,18.4 6.5,0 10.6,-3 13.9,-7.2 v 3 c 0,7.9 -4.4,12 -12.5,12 -5.4,0 -9.8,-1.5 -14,-4.1 l -3.4,6.8 c 5,3.1 11.1,4.8 17.6,4.8 m -58.5,-32.9 9,-20.9 9,20.9 z m -18.1,20.8 h 9.4 l 5.4,-12.6 h 24.7 l 5.3,12.6 h 9.7 l -23,-52.6 h -8.5 z m -46.3,-10.9 c -6.2,0 -11.2,-4.4 -11.2,-10.8 v -0.1 c 0,-6.5 4.9,-10.8 11.2,-10.8 6.3,0 11.6,4.3 11.6,10.8 v 0.1 c -0.1,6.4 -5.4,10.8 -11.6,10.8 m -0.8,23 c 7.1,0 12.6,-1.7 16.2,-5.3 3.3,-3.3 5,-8.2 5,-14.9 v -31.4 h -9 v 5.9 c -3.1,-3.7 -7.2,-6.7 -13.8,-6.7 -9.2,0 -17.9,6.9 -17.9,18.5 v 0.2 c 0,11.6 8.6,18.4 17.9,18.4 6.5,0 10.6,-3 13.9,-7.2 v 3 c 0,7.9 -4.4,12 -12.5,12 -5.4,0 -9.8,-1.5 -14,-4.1 l -3.4,6.8 c 5.1,3.1 11.1,4.8 17.6,4.8 M 1170,483.7 h 9.1 v -15 c 0,-10.5 5.5,-15.6 13.4,-15.6 h 0.5 v -9.6 c -6.9,-0.3 -11.5,3.7 -14,9.6 v -8.9 h -9.1 z m -29.4,-7.1 c -7,0 -12,-5.7 -12,-12.6 v -0.2 c 0,-6.9 4.6,-12.5 11.9,-12.5 7.1,0 12.1,5.8 12.1,12.7 v 0.2 c 0,6.8 -4.7,12.4 -12,12.4 m -0.1,8 c 12.2,0 21.1,-9.3 21.1,-20.5 v -0.2 c 0,-11.3 -8.9,-20.5 -21,-20.5 -12.1,0 -21.1,9.3 -21.1,20.6 v 0.2 c 0.1,11.2 8.9,20.4 21,20.4 m -56.2,-23.4 c 0.8,-6.1 4.7,-10.4 10.2,-10.4 6,0 9.4,4.6 10,10.4 z m 11.3,23.4 c 7.2,0 12.4,-2.9 16.1,-7.4 l -5.3,-4.7 c -3.1,3.1 -6.3,4.7 -10.7,4.7 -5.8,0 -10.4,-3.6 -11.4,-10 h 29 c 0.1,-0.9 0.2,-1.7 0.2,-2.5 0,-11.3 -6.3,-21.2 -18.9,-21.2 -11.3,0 -19.3,9.3 -19.3,20.5 v 0.1 c 0,12.2 8.9,20.5 20.3,20.5 m -49.8,0 c 9.3,0 16.7,-3.7 21.8,-8.1 v -22 h -22.3 v 8.1 h 13.4 v 9.7 c -3.2,2.4 -7.7,4 -12.6,4 -10.7,0 -17.8,-7.9 -17.8,-18.7 v -0.2 c 0,-10 7.3,-18.4 16.9,-18.4 6.6,0 10.6,2.2 14.6,5.5 l 5.8,-6.9 c -5.4,-4.6 -11,-7.1 -20.1,-7.1 -15.8,0 -27,12.4 -27,27 v 0.1 c 0.2,15.3 10.9,27 27.3,27"
   id="path3872"
   inkscape:connector-curvature="0"
   style="fill:#e3001f" />
		<path
   class="st1"
   d="m 1410.1,383.9 c 0.8,-6.1 4.7,-10.4 10.2,-10.4 6,0 9.4,4.6 10,10.4 z m 11.3,23.4 c 7.2,0 12.4,-2.9 16.1,-7.4 l -5.3,-4.7 c -3.1,3.1 -6.3,4.7 -10.7,4.7 -5.8,0 -10.4,-3.6 -11.3,-10 h 29 c 0.1,-0.9 0.1,-1.7 0.1,-2.5 0,-11.4 -6.3,-21.2 -18.9,-21.2 -11.3,0 -19.3,9.3 -19.3,20.5 v 0.1 c 0.1,12.2 8.9,20.5 20.3,20.5 m -38.2,-0.9 h 9.1 v -54.5 h -9.1 z m -32.8,0.8 c 6.1,0 9.8,-3.2 12.3,-6.9 v 6.1 h 9.1 V 367 h -9.1 v 22.2 c 0,6.1 -3.7,9.7 -8.9,9.7 -5.4,0 -8.4,-3.4 -8.4,-9.6 V 367 h -9 v 25.1 c -0.1,9.2 5.1,15.1 14,15.1 m -58.9,-0.8 h 9.1 v -22.3 c 0,-6.1 3.7,-9.8 8.9,-9.8 5.4,0 8.4,3.5 8.4,9.6 v 22.4 h 9 v -25.2 c 0,-9.1 -5.2,-15.1 -14,-15.1 -6.1,0 -9.8,3.2 -12.3,6.9 v -21.1 h -9.1 z m -24.1,0.9 c 7.7,0 12.2,-3.1 16.1,-7.4 l -5.5,-5.4 c -2.9,2.9 -6,4.9 -10.2,4.9 -6.9,0 -11.8,-5.6 -11.8,-12.6 v -0.2 c 0,-6.9 4.9,-12.5 11.4,-12.5 4.5,0 7.4,2.1 10.2,4.9 l 5.7,-6 c -3.7,-4 -8.4,-6.8 -15.8,-6.8 -11.9,0 -20.5,9.4 -20.5,20.6 v 0.1 c 0.1,11.2 8.7,20.4 20.4,20.4 m -40.2,-0.1 c 8.2,0 14.6,-4.1 14.6,-12.4 v -0.2 c 0,-7.1 -6.5,-9.7 -12.2,-11.5 -4.6,-1.5 -8.9,-2.7 -8.9,-5.6 v -0.2 c 0,-2.2 2,-3.9 5.5,-3.9 3.3,0 7.3,1.4 11.1,3.7 l 3.6,-6.4 c -4.2,-2.8 -9.6,-4.5 -14.5,-4.5 -7.8,0 -14,4.6 -14,12.1 v 0.2 c 0,7.5 6.5,9.9 12.3,11.5 4.6,1.4 8.8,2.5 8.8,5.5 v 0.2 c 0,2.6 -2.2,4.3 -6.1,4.3 -4,0 -8.6,-1.6 -12.9,-4.9 l -4,6.1 c 4.9,4 11.1,6 16.7,6 m -59.1,-0.8 h 9.1 v -22.3 c 0,-6.1 3.7,-9.8 8.9,-9.8 5.4,0 8.4,3.5 8.4,9.6 v 22.4 h 9 v -25.2 c 0,-9.1 -5.2,-15.1 -14,-15.1 -6.1,0 -9.8,3.2 -12.3,6.9 v -21.1 h -9.1 z m -24.1,0.9 c 7.7,0 12.2,-3.1 16.1,-7.4 l -5.4,-5.4 c -2.9,2.9 -6,4.9 -10.2,4.9 -6.9,0 -11.8,-5.6 -11.8,-12.6 v -0.2 c 0,-6.9 4.9,-12.5 11.4,-12.5 4.5,0 7.4,2.1 10.2,4.9 l 5.7,-6 c -3.7,-4 -8.4,-6.8 -15.8,-6.8 -11.9,0 -20.5,9.4 -20.5,20.6 v 0.1 c -0.1,11.2 8.5,20.4 20.3,20.4 m -47.7,-7.9 c -7,0 -12,-5.7 -12,-12.6 v -0.2 c 0,-6.9 4.6,-12.5 11.9,-12.5 7.1,0 12.1,5.7 12.1,12.7 v 0.1 c 0,6.8 -4.7,12.5 -12,12.5 m -0.1,7.9 c 12.2,0 21.1,-9.3 21.1,-20.5 v -0.2 c 0,-11.3 -8.9,-20.5 -21,-20.5 -12.1,0 -21.1,9.3 -21.1,20.6 v 0.1 c 0.1,11.3 9,20.5 21,20.5 m -73,-0.9 h 9.2 v -22 h 24.9 v 22 h 9.2 v -52.3 h -9.2 v 21.7 h -24.9 v -21.7 h -9.2 z"
   id="path3874"
   inkscape:connector-curvature="0"
   style="fill:#003c7c" />
		<path
   class="st1"
   d="m 1388.7,304.9 c 0.8,-6.1 4.7,-10.4 10.2,-10.4 6,0 9.4,4.6 10,10.4 z m 11.2,23.4 c 7.2,0 12.4,-2.9 16.1,-7.4 l -5.3,-4.7 c -3.1,3.1 -6.3,4.7 -10.7,4.7 -5.8,0 -10.4,-3.6 -11.3,-10 h 29 c 0.1,-0.9 0.1,-1.7 0.1,-2.5 0,-11.3 -6.3,-21.2 -18.9,-21.2 -11.3,0 -19.3,9.3 -19.3,20.5 v 0.1 c 0.1,12.2 8.9,20.5 20.3,20.5 m -62.9,-0.9 h 9.1 v -22.3 c 0,-6.1 3.7,-9.8 8.9,-9.8 5.4,0 8.4,3.5 8.4,9.6 v 22.4 h 9 v -25.2 c 0,-9.1 -5.2,-15.1 -14,-15.1 -6.1,0 -9.8,3.2 -12.3,6.9 v -21.1 h -9.1 z m -23.2,0.9 c 7.7,0 12.2,-3.1 16.1,-7.4 l -5.4,-5.4 c -2.9,2.9 -6,4.9 -10.2,4.9 -6.9,0 -11.8,-5.6 -11.8,-12.6 v -0.2 c 0,-6.9 4.9,-12.5 11.4,-12.5 4.5,0 7.4,2.1 10.2,4.9 l 5.7,-6 c -3.7,-4 -8.4,-6.8 -15.8,-6.8 -11.9,0 -20.5,9.4 -20.5,20.6 v 0.1 c -0.1,11.2 8.6,20.4 20.3,20.4 m -40.3,-0.2 c 8.2,0 14.6,-4.1 14.6,-12.4 v -0.2 c 0,-7.1 -6.5,-9.7 -12.2,-11.5 -4.6,-1.5 -8.9,-2.7 -8.9,-5.6 v -0.1 c 0,-2.2 2,-3.9 5.5,-3.9 3.3,0 7.3,1.4 11.1,3.7 l 3.6,-6.4 c -4.2,-2.8 -9.6,-4.5 -14.5,-4.5 -7.8,0 -14,4.6 -14,12.1 v 0.1 c 0,7.5 6.5,9.9 12.3,11.5 4.6,1.4 8.8,2.5 8.8,5.5 v 0.2 c 0,2.6 -2.2,4.3 -6.1,4.3 -4,0 -8.6,-1.6 -12.9,-4.9 l -4,6.1 c 4.9,4.1 11.1,6 16.7,6 m -34.2,-0.7 h 9.1 V 288 h -9.1 z m -0.3,-45.5 h 9.7 v -8.6 h -9.7 z m -45.6,45.5 h 9.1 v -22.3 c 0,-6.1 3.7,-9.8 8.9,-9.8 5.4,0 8.4,3.5 8.4,9.6 v 22.4 h 9 v -25.2 c 0,-9.1 -5.2,-15.1 -14,-15.1 -6.1,0 -9.8,3.2 -12.3,6.9 v -6 h -9.1 z m -45.6,0 h 9.1 v -22.3 c 0,-6.1 3.7,-9.8 8.9,-9.8 5.4,0 8.4,3.5 8.4,9.6 v 22.4 h 9 v -25.2 c 0,-9.1 -5.2,-15.1 -14,-15.1 -6.1,0 -9.8,3.2 -12.3,6.9 v -21.1 h -9.1 z m -24.1,0.9 c 7.7,0 12.2,-3.1 16.1,-7.4 l -5.5,-5.4 c -2.9,2.9 -6,4.9 -10.2,4.9 -6.9,0 -11.8,-5.6 -11.8,-12.6 v -0.2 c 0,-6.9 4.9,-12.5 11.4,-12.5 4.5,0 7.4,2.1 10.2,4.9 l 5.7,-6 c -3.7,-4 -8.4,-6.8 -15.8,-6.8 -11.9,0 -20.5,9.4 -20.5,20.6 v 0.1 c 0.1,11.2 8.7,20.4 20.4,20.4 M 1068,304.9 c 0.8,-6.1 4.7,-10.4 10.2,-10.4 6,0 9.4,4.6 10,10.4 z m 11.2,23.4 c 7.2,0 12.4,-2.9 16.1,-7.4 l -5.3,-4.7 c -3.1,3.1 -6.3,4.7 -10.7,4.7 -5.8,0 -10.4,-3.6 -11.3,-10 h 29 c 0.1,-0.9 0.1,-1.7 0.1,-2.5 0,-11.3 -6.3,-21.2 -18.9,-21.2 -11.3,0 -19.3,9.3 -19.3,20.5 v 0.1 c 0.1,12.2 8.9,20.5 20.3,20.5 m -45.4,-0.9 h 9.2 v -43.8 h 16.7 v -8.5 h -42.5 v 8.5 h 16.7 v 43.8 z"
   id="path3876"
   inkscape:connector-curvature="0"
   style="fill:#003c7c" />
	</g>
	<g
   id="g3884">
		<path
   class="st1"
   d="m 942,397.6 c -12.4,1.1 -24.4,6.5 -34.3,15.5 l -30.3,25.7 c 16.9,-27.2 25.2,-56.7 25.2,-89.2 v -40.5 c 24.8,20.6 39.4,51.2 39.4,83.7 z m -170.7,15.6 c -10,-9 -22,-14.4 -34.4,-15.6 v -4.9 c 0,-32.6 14.6,-63.2 39.5,-83.8 v 40.6 c 0,32.6 8.4,62.2 25.5,89.6 l -17.1,-14.4 z m -6,-188.7 h 0.1 l 11,-3 v 64.8 C 767.7,273.6 763,258.7 763,243 c 0,-6.3 0.8,-12.5 2.3,-18.5 m -27.5,-20.3 89.8,-51.5 25.1,-0.1 c 27.2,0 53.5,8 75.9,23 v 4.7 h -36 L 764.2,215 h -26.4 z m 176,-4.5 c -2,-3.4 -4.3,-6.8 -6.8,-9.9 h 24.7 z m -11.2,86.6 v -86.6 c 8.7,12.7 13.4,27.6 13.4,43.3 0,15.7 -4.7,30.7 -13.4,43.3 M 785.9,244.1 c 3.1,-0.9 6.1,-1.4 8.9,-1.4 0.1,0 0.2,0 0.3,0 3.5,0 6.8,0.7 9.9,1.7 -8.3,2.7 -14.3,10.5 -14.3,19.7 h 9.5 c 0,-4.2 2.4,-7.9 5.8,-9.9 -0.7,1.1 -1.1,2.3 -1.1,3.7 0,3.7 3,6.6 6.6,6.6 3.7,0 6.6,-3 6.6,-6.6 0,-1.4 -0.4,-2.7 -1.1,-3.7 3.4,1.9 5.7,5.4 5.8,9.6 v 26.7 c 0,4.5 1.8,8.5 4.7,11.5 -9,3.3 -16,10.3 -19,19.1 l -22.7,-23.6 z m 107.2,80.3 -21.1,21.1 h -9.4 v 18.3 c 0,7.5 -3.6,14.1 -9.1,18.3 v -36.6 h -9.4 v 40.9 c -1.5,0.3 -3.1,0.5 -4.7,0.5 -1.6,0 -3.1,-0.2 -4.6,-0.5 v -40.9 h -9.5 v 36.6 c -5.5,-4.2 -9.1,-10.9 -9.1,-18.3 v -18.3 h -9.3 l -21.2,-21.2 v -13.2 l 30.5,31.7 v -11.7 c 0,-6 2.5,-11.4 6.6,-15.3 H 856 c 4.1,3.9 6.6,9.3 6.6,15.3 v 11.8 l 30.5,-31.8 z m 0,-134.4 v 44.3 c -3,-0.7 -5.9,-1.1 -8.8,-1.1 C 864.4,233 848.7,249 848,249.6 l -1.3,1.4 v 12.3 c 0,0.1 0,0.2 0,0.3 v 0.4 0 h 9.3 c 0,-1.4 0.3,-2.8 0.9,-4.1 1,-2.5 2.8,-4.5 5.1,-5.8 -0.7,1.1 -1.2,2.4 -1.2,3.8 0,3.7 3,6.6 6.6,6.6 3.7,0 6.6,-3 6.6,-6.6 0,-1.4 -0.4,-2.7 -1.1,-3.7 3.5,1.9 5.8,5.6 5.8,9.9 h 9.5 c 0,-9.2 -6,-17 -14.3,-19.7 3.1,-1 6.5,-1.7 9.9,-1.7 0.1,0 0.2,0 0.3,0 2.8,0 5.8,0.5 8.9,1.4 v 53.3 l -22.7,23.7 c -3,-8.8 -10,-15.8 -19,-19.1 2.9,-3 4.7,-7 4.7,-11.5 h -9.5 c 0,3.9 -3.2,7.1 -7.2,7.1 -3.9,0 -7.1,-3.2 -7.1,-7.2 v -39.5 l -1.3,-1.4 c -0.7,-0.7 -16.2,-16.4 -35.9,-16.4 -0.1,0 -0.2,0 -0.4,0 -2.9,0 -5.8,0.4 -8.8,1.1 V 219 Z M 785.9,349.6 v -11.8 l 21.1,21.1 v 5 c 0,18 14.6,32.6 32.6,32.6 18,0 32.6,-14.6 32.6,-32.6 v -5 l 21.1,-21.1 v 11.8 c 0,46.5 -17.1,85.1 -53.6,121.2 C 803,434.7 785.9,396 785.9,349.6 m 119,-50.8 c 13.3,-15.6 20.6,-35.2 20.6,-55.8 0,-12.4 -2.6,-24.4 -7.6,-35.4 l 32.2,-17.8 v 0 0 0 0 -9.4 h -12 v -9.6 l -2,-1.4 c -24.5,-17.1 -53.4,-26.1 -83.4,-26.1 l -27.6,0.1 -96.7,55.4 -0.1,25.8 h 27.3 c -1.3,6.1 -2,12.3 -2,18.5 0,20.6 7.3,40.2 20.6,55.8 -29.3,22.3 -46.6,57 -46.6,94 V 407 h 4.7 c 11.7,0 23.3,4.7 32.9,13.4 l 69.4,58.7 c 0.6,0.5 1.1,1.1 1.7,1.6 l 3.4,3 3.1,-2.7 0.3,-0.3 c 0.8,-0.7 1.5,-1.5 2.2,-2.2 l 55,-46.5 13.7,-11.7 c 9.5,-8.6 21.1,-13.3 32.8,-13.3 h 4.7 v -14.1 c -0.1,-37.1 -17.4,-71.8 -46.6,-94.1"
   id="path3880"
   inkscape:connector-curvature="0"
   style="fill:#003c7c" />
		<path
   class="st1"
   d="m 823.9,323.7 c 0.1,0.1 0.2,0.2 0.3,0.4 0.2,0.3 0.6,0.8 1,1.3 0.4,0.5 1,1.1 1.6,1.6 0.6,0.6 1.3,1.1 2,1.7 0.7,0.5 1.5,1.1 2.4,1.5 0.8,0.5 1.7,0.9 2.6,1.2 1.8,0.7 3.8,1 5.8,1 2,0 3.9,-0.3 5.8,-1 0.9,-0.3 1.8,-0.7 2.7,-1.2 0.8,-0.5 1.6,-1 2.4,-1.5 0.7,-0.6 1.4,-1.1 2,-1.7 0.6,-0.6 1.1,-1.1 1.6,-1.6 0.4,-0.5 0.8,-1 1,-1.3 0.1,-0.1 0.2,-0.3 0.3,-0.4 0.1,-0.1 0.1,-0.1 0.1,-0.1 h -31.4 c -0.2,0 -0.2,0 -0.2,0.1"
   id="path3882"
   inkscape:connector-curvature="0"
   style="fill:#003c7c" />
	</g>
</g>
</svg>